<svg xmlns="http://www.w3.org/2000/svg" viewBox="0 0 132.83 132.83"><defs><style>.cls-1{fill:#68ad1f;}</style></defs><g id="Layer_2" data-name="Layer 2"><g id="Layer_1-2" data-name="Layer 1"><path class="cls-1" d="M71,95.08H93.65a4.53,4.53,0,0,0,4.54-4.54V72.39H71Z"/><path class="cls-1" d="M66.42,0a66.42,66.42,0,1,0,66.41,66.42A66.49,66.49,0,0,0,66.42,0ZM7.83,66.42A58.55,58.55,0,0,1,105,22.34l-14,14a12.46,12.46,0,0,0-9.81-4.79c-5.9,0-9.72,3-14.61,9.69-4.9-6.67-8.71-9.69-14.61-9.69A12.5,12.5,0,0,0,39.47,44a12.07,12.07,0,0,0,1.43,5.67H34.64a4.54,4.54,0,0,0-4.54,4.54V65.58a2.28,2.28,0,0,0,2.27,2.27H59.45l-4.54,4.54H34.64V90.54A4.46,4.46,0,0,0,35,92.3L22.34,105A58.35,58.35,0,0,1,7.83,66.42ZM77.61,49.69H69c7.29-10.85,9.31-11.34,12.21-11.34a5.65,5.65,0,0,1,4.92,2.86Zm-13.46,0H51.93a5.67,5.67,0,0,1,0-11.34C54.76,38.35,56.84,38.81,64.15,49.69ZM66.42,125a58.31,58.31,0,0,1-38.54-14.52l15.4-15.41h18.6V76.49l8.64-8.64h29.94a2.27,2.27,0,0,0,2.27-2.27V54.23a4.54,4.54,0,0,0-4.54-4.54h-6a12.58,12.58,0,0,0,1.38-4.92l16.89-16.89A58.54,58.54,0,0,1,66.42,125Z"/></g></g></svg>