<svg xmlns="http://www.w3.org/2000/svg" viewBox="0 0 127.94 102.35"><defs><style>.cls-1{fill:#68ad1f;}</style></defs><g id="Layer_2" data-name="Layer 2"><g id="Layer_1-2" data-name="Layer 1"><path class="cls-1" d="M61.66,54.26,48.09,40.69.94,87.84a3.2,3.2,0,0,0,0,4.53l9,9a3.2,3.2,0,0,0,4.53,0Z"/><path class="cls-1" d="M94.52,21.4l6.89-6.89a3.2,3.2,0,0,0,0-4.53l-9-9a3.2,3.2,0,0,0-4.53,0L81,7.83l-6-6a6.41,6.41,0,0,0-9,0L46.65,21.16a6.4,6.4,0,0,0,0,9.05L76.76,60.32V83.16h6.4a44.78,44.78,0,0,0,44.78-44.78V32H105.1Zm20,23.38a32.11,32.11,0,0,1-24.94,25V62.14a32.1,32.1,0,0,0,17.36-17.36Z"/></g></g></svg>