<svg xmlns="http://www.w3.org/2000/svg" viewBox="0 0 102.35 102.35"><defs><style>.cls-1{fill:#68ad1f;}</style></defs><g id="Layer_2" data-name="Layer 2"><g id="Layer_1-2" data-name="Layer 1"><path class="cls-1" d="M96.42,35.33a4.8,4.8,0,0,0-6.78,0l-1.13,1.13L65.89,13.84,67,12.71a4.8,4.8,0,0,0,0-6.78L62.5,1.41a4.79,4.79,0,0,0-6.79,0L30.83,26.28a4.81,4.81,0,0,0,0,6.79l4.53,4.52a4.78,4.78,0,0,0,6.78,0l1.13-1.13,7.92,7.92L35,60.58l-1.13-1.13a6.4,6.4,0,0,0-9,0L1.87,82.39a6.4,6.4,0,0,0,0,9l9.05,9a6.4,6.4,0,0,0,9,0L42.91,77.54a6.42,6.42,0,0,0,0-9.05l-1.14-1.13L58,51.16l7.92,7.92-1.13,1.13a4.8,4.8,0,0,0,0,6.78l4.52,4.53a4.81,4.81,0,0,0,6.79,0L101,46.64a4.81,4.81,0,0,0,0-6.79Z"/></g></g></svg>