<svg xmlns="http://www.w3.org/2000/svg" viewBox="0 0 115.15 89.56"><defs><style>.cls-1{fill:#68ad1f;}</style></defs><g id="Layer_2" data-name="Layer 2"><g id="Layer_1-2" data-name="Layer 1"><path class="cls-1" d="M70.37,60.77a3.2,3.2,0,0,1-3.2,3.2H48a3.2,3.2,0,0,1-3.2-3.2V51.18H25.59V89.56h64V51.18H70.37Z"/><path class="cls-1" d="M60.77,54.37V41.58a3.2,3.2,0,0,0-6.4,0V54.37a3.2,3.2,0,0,0,6.4,0Z"/><path class="cls-1" d="M96,0V44.78h19.19V19.19A19.19,19.19,0,0,0,96,0Z"/><path class="cls-1" d="M25.59,44.78H44.78v-9.6A3.2,3.2,0,0,1,48,32H67.17a3.2,3.2,0,0,1,3.2,3.2v9.6H89.56V0h-64Z"/><path class="cls-1" d="M96,89.56h12.79a6.41,6.41,0,0,0,6.4-6.4v-32H96Z"/><path class="cls-1" d="M0,83.16a6.4,6.4,0,0,0,6.4,6.4H19.19V51.18H0Z"/><path class="cls-1" d="M0,19.19V44.78H19.19V0A19.19,19.19,0,0,0,0,19.19Z"/></g></g></svg>