<svg xmlns="http://www.w3.org/2000/svg" viewBox="0 0 115.15 102.35"><defs><style>.cls-1{fill:#68ad1f;}</style></defs><g id="Layer_2" data-name="Layer 2"><g id="Layer_1-2" data-name="Layer 1"><path class="cls-1" d="M58.13,102,85.52,38.38H29.63L57,102A.6.6,0,0,0,58.13,102Z"/><path class="cls-1" d="M43.72,89.36a.61.61,0,0,0,1-.66L20.13,38.38H0Z"/><polygon class="cls-1" points="20.21 31.98 34.04 0 18.09 0 0 31.98 20.21 31.98"/><polygon class="cls-1" points="97.05 0 81.1 0 94.94 31.98 115.15 31.98 97.05 0"/><path class="cls-1" d="M71.43,89.34l43.72-51H95L70.43,88.7A.6.6,0,0,0,71.43,89.34Z"/><polygon class="cls-1" points="71.47 0 43.68 0 29.85 31.98 85.3 31.98 71.47 0"/></g></g></svg>