<svg xmlns="http://www.w3.org/2000/svg" viewBox="0 0 102.36 102.35"><defs><style>.cls-1{fill:#68ad1f;}</style></defs><g id="Layer_2" data-name="Layer 2"><g id="Layer_1-2" data-name="Layer 1"><path class="cls-1" d="M64,28.8V40.67A54.3,54.3,0,0,1,17.39,8.35a3.19,3.19,0,0,0-5.79-.18A53.9,53.9,0,0,0,6.4,31.3c0,14.15,6.82,27.36,17,37.16A80.09,80.09,0,0,0,31.19,75L2.42,82.21a3.22,3.22,0,0,0-1.9,4.88C4,92.47,12.6,101.58,31.15,102.34a6.43,6.43,0,0,0,4.42-1.58l13-11.21H64a32,32,0,0,0,32-32v-32l6.4-12.8H80A16,16,0,0,0,64,28.8Zm19.19,0A3.2,3.2,0,1,1,80,25.6,3.21,3.21,0,0,1,83.16,28.8Z"/><path class="cls-1" d="M41.2,1.11A54.15,54.15,0,0,0,31.43,18.4a48,48,0,0,0,26.15,15V27.8a54.18,54.18,0,0,1-10.82-25A3.19,3.19,0,0,0,41.2,1.11Z"/></g></g></svg>