<svg xmlns="http://www.w3.org/2000/svg" viewBox="0 0 127.93 102.35"><defs><style>.cls-1{fill:#68ad1f;}</style></defs><g id="Layer_2" data-name="Layer 2"><g id="Layer_1-2" data-name="Layer 1"><path class="cls-1" d="M22.39,44.78h0a22.29,22.29,0,0,0,17.37-8.29,1,1,0,0,0,.24-.66,1,1,0,0,0-1.05-1,.65.65,0,0,0-.2,0,18,18,0,0,1-3.31.31A17.53,17.53,0,0,1,26.81,2.32a1,1,0,0,0,.53-.91,1.06,1.06,0,0,0-.86-1A27.51,27.51,0,0,0,22.39,0a22.39,22.39,0,0,0,0,44.78Z"/><path class="cls-1" d="M14.94,81,18.25,89a1.06,1.06,0,0,0,1.9,0L23.46,81l8-3.31a1.07,1.07,0,0,0,0-1.91L23.46,72.5l-3.32-7.93a1.06,1.06,0,0,0-1.9,0L14.93,72.5,7,75.81a1.07,1.07,0,0,0,0,1.91Z"/><path class="cls-1" d="M39,13.75l7.94,3.31L50.23,25a1.08,1.08,0,0,0,1,.59,1.06,1.06,0,0,0,1-.59l3.31-7.94,7.94-3.31a1.07,1.07,0,0,0,0-1.91l-8-3.31L52.13.6a1.06,1.06,0,0,0-1-.59,1.08,1.08,0,0,0-1,.59L46.91,8.53,39,11.84a1.07,1.07,0,0,0,0,1.91Z"/><path class="cls-1" d="M32,60.58a2.82,2.82,0,0,0,.71,1.87l3.75,4.26a2.83,2.83,0,0,0,4,.25l4.33-3.82V96a6.4,6.4,0,0,0,6.4,6.4h57.57a6.4,6.4,0,0,0,6.4-6.4V63.14L119.47,67a2.86,2.86,0,0,0,4-.25l3.75-4.26a2.79,2.79,0,0,0,.71-1.88,2.84,2.84,0,0,0-.94-2.12L115.15,48V28.79a3.2,3.2,0,0,0-3.2-3.2h-6.4a3.2,3.2,0,0,0-3.2,3.2v7.85L84.66,21A7,7,0,0,0,80,19.19,7.11,7.11,0,0,0,75.28,21L32.94,58.46A2.83,2.83,0,0,0,32,60.58Zm38.38.19a3.2,3.2,0,0,1,3.2-3.2H86.36a3.21,3.21,0,0,1,3.2,3.2v12.8a3.2,3.2,0,0,1-3.2,3.19H73.57a3.19,3.19,0,0,1-3.2-3.19Z"/></g></g></svg>