<svg xmlns="http://www.w3.org/2000/svg" viewBox="0 0 102.35 102.35"><defs><style>.cls-1{fill:#68ad1f;}</style></defs><g id="Layer_2" data-name="Layer 2"><g id="Layer_1-2" data-name="Layer 1"><path class="cls-1" d="M64.94,95.33a3.2,3.2,0,0,0,3.77.55l11.8-6.32,11.86,11.85a3.19,3.19,0,0,0,4.52,0l4.52-4.52a3.19,3.19,0,0,0,0-4.52L89.56,80.51l6.32-11.8a3.19,3.19,0,0,0-.56-3.77l-3.5-3.51a3.22,3.22,0,0,0-4.53,0L61.43,87.3a3.19,3.19,0,0,0,0,4.52Z"/><path class="cls-1" d="M77.84,61.85,18.66,2.66,3,0A2.65,2.65,0,0,0,0,3L2.67,18.66,61.84,77.84Z"/><path class="cls-1" d="M.94,96.89l4.52,4.52a3.19,3.19,0,0,0,4.52,0L21.84,89.56l11.8,6.32a3.2,3.2,0,0,0,3.77-.55l3.51-3.51a3.19,3.19,0,0,0,0-4.52L36,82.36,46.65,71.69l-16-16L20,66.37l-4.94-4.94a3.19,3.19,0,0,0-4.52,0L7,64.94a3.19,3.19,0,0,0-.56,3.77l6.32,11.8L.94,92.37A3.19,3.19,0,0,0,.94,96.89Z"/><path class="cls-1" d="M55.7,30.66l16,16,28-28L102.32,3a2.65,2.65,0,0,0-3-3L83.7,2.67Z"/></g></g></svg>